<?xml version="1.0" encoding="UTF-8" standalone="no"?>
<!-- Created with Inkscape (http://www.inkscape.org/) -->

<svg
   width="62mm"
   height="62mm"
   viewBox="0 0 62 62"
   version="1.1"
   id="svg1"
   inkscape:version="1.3.2 (091e20e, 2023-11-25, custom)"
   sodipodi:docname="logo.svg"
   xmlns:inkscape="http://www.inkscape.org/namespaces/inkscape"
   xmlns:sodipodi="http://sodipodi.sourceforge.net/DTD/sodipodi-0.dtd"
   xmlns="http://www.w3.org/2000/svg"
   xmlns:svg="http://www.w3.org/2000/svg">
  <sodipodi:namedview
     id="namedview1"
     pagecolor="#ffffff"
     bordercolor="#000000"
     borderopacity="0.25"
     inkscape:showpageshadow="2"
     inkscape:pageopacity="0.0"
     inkscape:pagecheckerboard="0"
     inkscape:deskcolor="#d1d1d1"
     inkscape:document-units="mm"
     showgrid="true"
     inkscape:zoom="0.99330107"
     inkscape:cx="396.65718"
     inkscape:cy="239.10173"
     inkscape:window-width="2560"
     inkscape:window-height="1346"
     inkscape:window-x="-11"
     inkscape:window-y="-11"
     inkscape:window-maximized="1"
     inkscape:current-layer="layer1">
    <inkscape:grid
       id="grid1"
       units="mm"
       originx="0"
       originy="0"
       spacingx="0.99999998"
       spacingy="1"
       empcolor="#0099e5"
       empopacity="0.30196078"
       color="#0099e5"
       opacity="0.14901961"
       empspacing="5"
       dotted="false"
       gridanglex="30"
       gridanglez="30"
       visible="true" />
  </sodipodi:namedview>
  <defs
     id="defs1" />
  <g
     inkscape:label="图层 1"
     inkscape:groupmode="layer"
     id="layer1">
    <path
       fill="#f39801"
       opacity="1"
       d="m 15.500012,6.8263688 c 3.894666,-2.451805 8.364361,-3.869972 12.93636,-4.339166 2.444747,-0.546806 4.903607,0.137583 7.330727,0.440972 4.64608,0.903111 9.11225,2.882194 12.75644,5.930194 2.31422,1.9402782 4.39914,4.1733612 6.10306,6.6710282 1.42169,2.321278 2.71638,4.751917 3.43252,7.394222 2.21897,6.88975 1.47461,14.643805 -1.92969,21.022027 -1.19592,2.698754 -3.1362,4.967114 -4.99886,7.228414 -0.39511,0.45156 -0.88547,0.81139 -1.40053,1.11831 -4.13808,4.00403 -9.65906,6.40997 -15.31408,7.27075 -6.953253,1.03364 -14.132281,-0.94545 -19.942531,-4.80484 -3.450166,-2.49413 -6.4523048,-5.63033 -8.6254158,-9.29922 -1.040695,-2.247191 -2.395361,-4.39208 -2.839861,-6.865052 -0.331611,-0.970139 -0.585611,-1.9685 -0.659695,-2.991556 -0.324555,-1.883833 -0.486833,-3.817055 -0.419805,-5.725583 0.218722,-1.658056 0.292805,-3.340806 0.723194,-4.970639 0.811389,-3.012722 1.802695,-6.06425 3.566584,-8.66775 0.299861,-0.455083 0.606777,-0.910166 0.896055,-1.372305 1.227667,-1.672167 2.515306,-3.330222 4.0428328,-4.744861 1.411111,-1.1430002 2.832806,-2.2789452 4.342695,-3.2949452 m 13.31736,0.885473 c -4.335638,0.437444 -8.262055,2.9562772 -10.932583,6.3288332 -3.1115,3.958166 -3.877027,9.489722 -2.395361,14.248694 0.398639,1.202972 0.917223,2.659944 2.300111,3.005666 1.972028,0.663223 4.099278,-1.531055 3.224389,-3.492499 -1.467555,-2.977445 -1.139472,-6.575778 0.465667,-9.426222 2.197805,-4.148667 7.401277,-6.272389 11.892134,-4.988278 4.93889,1.414639 8.73125,6.776861 7.59531,11.938 -0.63147,3.919361 -3.76061,7.217833 -7.5565,8.272638 -0.68439,0.1905 -1.46756,0.448028 -2.13431,0.0635 -0.93838,-0.448027 -1.435801,-1.640416 -0.94191,-2.592916 0.97719,-2.324806 1.95439,-4.649611 2.94216,-6.967361 0.44803,-1.058334 1.07598,-2.173111 0.77612,-3.358445 -0.39512,-1.139472 -1.56281,-2.06375 -2.80812,-1.855611 -1.13594,0.01764 -2.003773,0.934861 -2.398884,1.929695 -1.531056,3.640666 -3.072695,7.277805 -4.621389,10.914944 -0.871361,1.852083 -0.762,4.307416 0.726722,5.820833 1.375833,1.580445 3.647722,1.679222 5.588001,1.732139 5.43278,0.07408 10.78442,-2.839861 13.61017,-7.485944 4.20863,-6.646333 2.49766,-16.502944 -4.03225,-21.036139 C 36.836009,8.5373418 32.786119,7.3661188 28.817372,7.7118418 M 24.640484,41.67023 c -1.054806,0.275166 -1.901473,1.245305 -2.010834,2.335389 -0.254,1.534581 1.0795,3.093861 2.63525,3.065641 3.527778,0.0459 7.055559,0.0212 10.583329,0.0106 1.48167,0.0706 2.87867,-1.22061 2.77284,-2.737555 0.11289,-1.516944 -1.29822,-2.836333 -2.78695,-2.751666 -3.72886,0.03528 -7.47183,-0.112889 -11.193635,0.07761 m -0.585611,7.694081 c -2.215445,1.04775 -1.735667,4.80484 0.751416,5.11528 3.675945,0.14464 7.366,0.0529 11.04547,0.0494 1.49931,0.10583 2.90689,-1.24178 2.76931,-2.76225 0.10936,-1.48872 -1.29822,-2.76931 -2.74814,-2.71639 -3.18558,-0.0282 -6.371168,0.007 -9.553223,-0.0141 -0.758472,0.0282 -1.583972,-0.0776 -2.264833,0.32808 z"
       id="path1"
       style="stroke-width:0.352778" />
  </g>
</svg>
